<svg id="_393b77b7bb7cee5f0499baa8fe0e2ebb" data-name="393b77b7bb7cee5f0499baa8fe0e2ebb" xmlns="http://www.w3.org/2000/svg" width="24" height="19.153" viewBox="0 0 24 19.153">
  <g id="Group_4" data-name="Group 4">
    <path id="Path_2" data-name="Path 2" d="M19.368-402.031c-2.223.139-3.412.45-4.05,1.061a7.971,7.971,0,0,0-1.248,1.912A13.251,13.251,0,0,0,13-396.09l-.059.23-.263-.4a2.371,2.371,0,0,0-.975-.9,2.149,2.149,0,0,0-1.361-.005c-.273.166-.359.471-.337,1.168.021.632.08.788.354.964.123.08.305.1,1.232.112.6.011,1.088.027,1.088.037a2.583,2.583,0,0,1-.268.295,5.365,5.365,0,0,0-1.554,3.2,21.359,21.359,0,0,0,.3,4.28,4.984,4.984,0,0,0,.563,1.521,1.216,1.216,0,0,0,.412.337l.252.118.027.83c.032.97.086,1.125.445,1.291a2.72,2.72,0,0,0,1.136.1,2.738,2.738,0,0,0,1.136-.1c.359-.166.412-.3.439-1.071l.016-.664.6.032c.327.022,1.114.064,1.746.1,1.489.08,6.653.08,8.143,0,.632-.037,1.425-.08,1.757-.1l.6-.032v.611c0,.745.07.927.429,1.1.22.112.311.123,1.152.123a2.738,2.738,0,0,0,1.136-.1c.359-.166.412-.322.445-1.291l.027-.83.252-.118c.311-.144.471-.359.686-.889a12.3,12.3,0,0,0,.589-3.755,6.354,6.354,0,0,0-.2-2.464,5.739,5.739,0,0,0-1.355-2.228,2.585,2.585,0,0,1-.268-.295c0-.011.488-.027,1.088-.037,1.184-.016,1.264-.037,1.468-.348a2.938,2.938,0,0,0,.043-1.548c-.139-.364-.316-.45-.911-.45a1.8,1.8,0,0,0-1.682,1l-.268.407L31-396.09a12.716,12.716,0,0,0-1.511-3.766,3.449,3.449,0,0,0-1.3-1.473,7.533,7.533,0,0,0-2.839-.648C24.6-402.052,20.337-402.089,19.368-402.031Zm5.711,1.554a6.536,6.536,0,0,1,2.925.7,15.2,15.2,0,0,1,1.222,2.491,10.6,10.6,0,0,1,.52,1.886,4.46,4.46,0,0,1-.82-.022,87.948,87.948,0,0,0-10.917-.177c-1.275.054-3.386.193-3.637.236-.15.027-.15.022-.112-.171a16.411,16.411,0,0,1,.648-2.105,12.432,12.432,0,0,1,1.1-2.143,6.784,6.784,0,0,1,2.914-.7A44.626,44.626,0,0,1,25.078-400.477Zm-9.7,7.682a1.567,1.567,0,0,1,.98,1.457,1.259,1.259,0,0,1-.123.766,1.829,1.829,0,0,1-.873.878,1.827,1.827,0,0,1-1.414-.032,1.7,1.7,0,0,1-.471-2.711A1.651,1.651,0,0,1,15.382-392.795Zm14.635.005a1.7,1.7,0,0,1,.547,2.668,1.909,1.909,0,0,1-.52.4,1.827,1.827,0,0,1-1.414.032,1.979,1.979,0,0,1-.846-.8,1.865,1.865,0,0,1-.043-1.42,1.591,1.591,0,0,1,.675-.777A1.672,1.672,0,0,1,30.017-392.79Zm-4.237,3.284c.4.316.305.67-.337,1.334-.514.525-.316.5-3.444.5s-2.93.027-3.445-.5c-.552-.568-.67-.841-.5-1.157.15-.273.064-.268,3.969-.268C25.4-389.6,25.678-389.592,25.78-389.506Z" transform="translate(-10.001 402.059)" fill="#333"/>
  </g>
</svg>
